<mxfile host="app.diagrams.net" modified="2020-05-20T08:42:40.005Z" agent="5.0 (Windows NT 10.0; Win64; x64) AppleWebKit/537.36 (KHTML, like Gecko) Chrome/81.0.4044.138 Safari/537.36" etag="WJ02kqCOrRNM_TTlgjfd" version="13.1.3" type="github">
  <diagram id="C5RBs43oDa-KdzZeNtuy" name="Page-1">
    <mxGraphModel dx="920" dy="1367" grid="1" gridSize="10" guides="1" tooltips="1" connect="1" arrows="1" fold="1" page="1" pageScale="1" pageWidth="827" pageHeight="1169" math="0" shadow="0">
      <root>
        <mxCell id="WIyWlLk6GJQsqaUBKTNV-0" />
        <mxCell id="WIyWlLk6GJQsqaUBKTNV-1" parent="WIyWlLk6GJQsqaUBKTNV-0" />
        <mxCell id="WIyWlLk6GJQsqaUBKTNV-2" value="" style="rounded=0;html=1;jettySize=auto;orthogonalLoop=1;fontSize=11;endArrow=block;endFill=0;endSize=8;strokeWidth=1;shadow=0;labelBackgroundColor=none;edgeStyle=orthogonalEdgeStyle;entryX=0.5;entryY=0;entryDx=0;entryDy=0;" parent="WIyWlLk6GJQsqaUBKTNV-1" source="WIyWlLk6GJQsqaUBKTNV-3" edge="1">
          <mxGeometry relative="1" as="geometry">
            <mxPoint x="215" y="180.00000000000023" as="targetPoint" />
          </mxGeometry>
        </mxCell>
        <mxCell id="WIyWlLk6GJQsqaUBKTNV-3" value="Start" style="rounded=1;whiteSpace=wrap;html=1;fontSize=12;glass=0;strokeWidth=1;shadow=0;" parent="WIyWlLk6GJQsqaUBKTNV-1" vertex="1">
          <mxGeometry x="155" y="80" width="120" height="40" as="geometry" />
        </mxCell>
        <mxCell id="WIyWlLk6GJQsqaUBKTNV-4" value="" style="rounded=0;html=1;jettySize=auto;orthogonalLoop=1;fontSize=11;endArrow=block;endFill=0;endSize=8;strokeWidth=1;shadow=0;labelBackgroundColor=none;edgeStyle=orthogonalEdgeStyle;exitX=0.5;exitY=1;exitDx=0;exitDy=0;" parent="WIyWlLk6GJQsqaUBKTNV-1" source="0fuXFUwvZUBsQNWXznji-1" edge="1">
          <mxGeometry y="40" relative="1" as="geometry">
            <mxPoint as="offset" />
            <mxPoint x="220" y="250" as="sourcePoint" />
            <mxPoint x="220.0000000000001" y="290" as="targetPoint" />
          </mxGeometry>
        </mxCell>
        <mxCell id="0fuXFUwvZUBsQNWXznji-1" value="" style="rounded=0;whiteSpace=wrap;html=1;" vertex="1" parent="WIyWlLk6GJQsqaUBKTNV-1">
          <mxGeometry x="145" y="180" width="150" height="60" as="geometry" />
        </mxCell>
        <mxCell id="0fuXFUwvZUBsQNWXznji-2" value="go forwad until you hit the wall" style="text;html=1;strokeColor=none;fillColor=none;align=center;verticalAlign=middle;whiteSpace=wrap;rounded=0;" vertex="1" parent="WIyWlLk6GJQsqaUBKTNV-1">
          <mxGeometry x="155" y="200" width="130" height="20" as="geometry" />
        </mxCell>
        <mxCell id="0fuXFUwvZUBsQNWXznji-4" value="" style="rounded=0;html=1;jettySize=auto;orthogonalLoop=1;fontSize=11;endArrow=block;endFill=0;endSize=8;strokeWidth=1;shadow=0;labelBackgroundColor=none;edgeStyle=orthogonalEdgeStyle;exitX=0.5;exitY=1;exitDx=0;exitDy=0;" edge="1" parent="WIyWlLk6GJQsqaUBKTNV-1" source="0fuXFUwvZUBsQNWXznji-5">
          <mxGeometry y="40" relative="1" as="geometry">
            <mxPoint as="offset" />
            <mxPoint x="220" y="360" as="sourcePoint" />
            <mxPoint x="220.0000000000001" y="400" as="targetPoint" />
          </mxGeometry>
        </mxCell>
        <mxCell id="0fuXFUwvZUBsQNWXznji-5" value="" style="rounded=0;whiteSpace=wrap;html=1;" vertex="1" parent="WIyWlLk6GJQsqaUBKTNV-1">
          <mxGeometry x="145" y="290" width="150" height="60" as="geometry" />
        </mxCell>
        <mxCell id="0fuXFUwvZUBsQNWXznji-6" value="turn left" style="text;html=1;strokeColor=none;fillColor=none;align=center;verticalAlign=middle;whiteSpace=wrap;rounded=0;" vertex="1" parent="WIyWlLk6GJQsqaUBKTNV-1">
          <mxGeometry x="155" y="310" width="130" height="20" as="geometry" />
        </mxCell>
        <mxCell id="0fuXFUwvZUBsQNWXznji-13" value="" style="rounded=0;html=1;jettySize=auto;orthogonalLoop=1;fontSize=11;endArrow=block;endFill=0;endSize=8;strokeWidth=1;shadow=0;labelBackgroundColor=none;edgeStyle=orthogonalEdgeStyle;exitX=0.5;exitY=1;exitDx=0;exitDy=0;" edge="1" parent="WIyWlLk6GJQsqaUBKTNV-1" source="0fuXFUwvZUBsQNWXznji-14">
          <mxGeometry y="40" relative="1" as="geometry">
            <mxPoint as="offset" />
            <mxPoint x="220" y="470" as="sourcePoint" />
            <mxPoint x="220.0000000000001" y="510" as="targetPoint" />
          </mxGeometry>
        </mxCell>
        <mxCell id="0fuXFUwvZUBsQNWXznji-14" value="" style="rounded=0;whiteSpace=wrap;html=1;" vertex="1" parent="WIyWlLk6GJQsqaUBKTNV-1">
          <mxGeometry x="145" y="400" width="150" height="60" as="geometry" />
        </mxCell>
        <mxCell id="0fuXFUwvZUBsQNWXznji-16" value="go forwad until you hit the wall" style="text;html=1;strokeColor=none;fillColor=none;align=center;verticalAlign=middle;whiteSpace=wrap;rounded=0;" vertex="1" parent="WIyWlLk6GJQsqaUBKTNV-1">
          <mxGeometry x="155" y="420" width="130" height="20" as="geometry" />
        </mxCell>
        <mxCell id="0fuXFUwvZUBsQNWXznji-17" value="" style="rounded=0;html=1;jettySize=auto;orthogonalLoop=1;fontSize=11;endArrow=block;endFill=0;endSize=8;strokeWidth=1;shadow=0;labelBackgroundColor=none;edgeStyle=orthogonalEdgeStyle;exitX=0.5;exitY=1;exitDx=0;exitDy=0;" edge="1" parent="WIyWlLk6GJQsqaUBKTNV-1" source="0fuXFUwvZUBsQNWXznji-18">
          <mxGeometry y="40" relative="1" as="geometry">
            <mxPoint as="offset" />
            <mxPoint x="220" y="580" as="sourcePoint" />
            <mxPoint x="220.0000000000001" y="620" as="targetPoint" />
          </mxGeometry>
        </mxCell>
        <mxCell id="0fuXFUwvZUBsQNWXznji-18" value="" style="rounded=0;whiteSpace=wrap;html=1;" vertex="1" parent="WIyWlLk6GJQsqaUBKTNV-1">
          <mxGeometry x="145" y="510" width="150" height="60" as="geometry" />
        </mxCell>
        <mxCell id="0fuXFUwvZUBsQNWXznji-19" value="turn left" style="text;html=1;strokeColor=none;fillColor=none;align=center;verticalAlign=middle;whiteSpace=wrap;rounded=0;" vertex="1" parent="WIyWlLk6GJQsqaUBKTNV-1">
          <mxGeometry x="155" y="530" width="130" height="20" as="geometry" />
        </mxCell>
        <mxCell id="0fuXFUwvZUBsQNWXznji-23" value="" style="rounded=0;html=1;jettySize=auto;orthogonalLoop=1;fontSize=11;endArrow=block;endFill=0;endSize=8;strokeWidth=1;shadow=0;labelBackgroundColor=none;edgeStyle=orthogonalEdgeStyle;exitX=0.5;exitY=1;exitDx=0;exitDy=0;" edge="1" parent="WIyWlLk6GJQsqaUBKTNV-1" source="0fuXFUwvZUBsQNWXznji-24">
          <mxGeometry y="40" relative="1" as="geometry">
            <mxPoint as="offset" />
            <mxPoint x="220" y="690" as="sourcePoint" />
            <mxPoint x="220.0000000000001" y="730" as="targetPoint" />
          </mxGeometry>
        </mxCell>
        <mxCell id="0fuXFUwvZUBsQNWXznji-24" value="" style="rounded=0;whiteSpace=wrap;html=1;" vertex="1" parent="WIyWlLk6GJQsqaUBKTNV-1">
          <mxGeometry x="145" y="620" width="150" height="60" as="geometry" />
        </mxCell>
        <mxCell id="0fuXFUwvZUBsQNWXznji-25" value="go forwad until you hit the wall" style="text;html=1;strokeColor=none;fillColor=none;align=center;verticalAlign=middle;whiteSpace=wrap;rounded=0;" vertex="1" parent="WIyWlLk6GJQsqaUBKTNV-1">
          <mxGeometry x="155" y="640" width="130" height="20" as="geometry" />
        </mxCell>
        <mxCell id="0fuXFUwvZUBsQNWXznji-26" value="" style="rounded=0;html=1;jettySize=auto;orthogonalLoop=1;fontSize=11;endArrow=block;endFill=0;endSize=8;strokeWidth=1;shadow=0;labelBackgroundColor=none;edgeStyle=orthogonalEdgeStyle;exitX=0.5;exitY=1;exitDx=0;exitDy=0;" edge="1" parent="WIyWlLk6GJQsqaUBKTNV-1" source="0fuXFUwvZUBsQNWXznji-27">
          <mxGeometry y="40" relative="1" as="geometry">
            <mxPoint as="offset" />
            <mxPoint x="220" y="800" as="sourcePoint" />
            <mxPoint x="220.0000000000001" y="840" as="targetPoint" />
          </mxGeometry>
        </mxCell>
        <mxCell id="0fuXFUwvZUBsQNWXznji-27" value="" style="rounded=0;whiteSpace=wrap;html=1;" vertex="1" parent="WIyWlLk6GJQsqaUBKTNV-1">
          <mxGeometry x="145" y="730" width="150" height="60" as="geometry" />
        </mxCell>
        <mxCell id="0fuXFUwvZUBsQNWXznji-28" value="turn right" style="text;html=1;strokeColor=none;fillColor=none;align=center;verticalAlign=middle;whiteSpace=wrap;rounded=0;" vertex="1" parent="WIyWlLk6GJQsqaUBKTNV-1">
          <mxGeometry x="155" y="750" width="130" height="20" as="geometry" />
        </mxCell>
        <mxCell id="0fuXFUwvZUBsQNWXznji-38" value="" style="rounded=0;html=1;jettySize=auto;orthogonalLoop=1;fontSize=11;endArrow=block;endFill=0;endSize=8;strokeWidth=1;shadow=0;labelBackgroundColor=none;edgeStyle=orthogonalEdgeStyle;exitX=0.5;exitY=1;exitDx=0;exitDy=0;" edge="1" parent="WIyWlLk6GJQsqaUBKTNV-1" source="0fuXFUwvZUBsQNWXznji-39">
          <mxGeometry y="40" relative="1" as="geometry">
            <mxPoint as="offset" />
            <mxPoint x="220" y="910" as="sourcePoint" />
            <mxPoint x="220.0000000000001" y="950" as="targetPoint" />
          </mxGeometry>
        </mxCell>
        <mxCell id="0fuXFUwvZUBsQNWXznji-39" value="" style="rounded=0;whiteSpace=wrap;html=1;" vertex="1" parent="WIyWlLk6GJQsqaUBKTNV-1">
          <mxGeometry x="145" y="840" width="150" height="60" as="geometry" />
        </mxCell>
        <mxCell id="0fuXFUwvZUBsQNWXznji-40" value="go forwad until you hit the wall" style="text;html=1;strokeColor=none;fillColor=none;align=center;verticalAlign=middle;whiteSpace=wrap;rounded=0;" vertex="1" parent="WIyWlLk6GJQsqaUBKTNV-1">
          <mxGeometry x="155" y="860" width="130" height="20" as="geometry" />
        </mxCell>
        <mxCell id="0fuXFUwvZUBsQNWXznji-41" value="" style="rounded=0;html=1;jettySize=auto;orthogonalLoop=1;fontSize=11;endArrow=block;endFill=0;endSize=8;strokeWidth=1;shadow=0;labelBackgroundColor=none;edgeStyle=orthogonalEdgeStyle;exitX=0.5;exitY=1;exitDx=0;exitDy=0;" edge="1" parent="WIyWlLk6GJQsqaUBKTNV-1" source="0fuXFUwvZUBsQNWXznji-42">
          <mxGeometry y="40" relative="1" as="geometry">
            <mxPoint as="offset" />
            <mxPoint x="220" y="1020" as="sourcePoint" />
            <mxPoint x="220.0000000000001" y="1060" as="targetPoint" />
          </mxGeometry>
        </mxCell>
        <mxCell id="0fuXFUwvZUBsQNWXznji-42" value="" style="rounded=0;whiteSpace=wrap;html=1;" vertex="1" parent="WIyWlLk6GJQsqaUBKTNV-1">
          <mxGeometry x="145" y="950" width="150" height="60" as="geometry" />
        </mxCell>
        <mxCell id="0fuXFUwvZUBsQNWXznji-43" value="turn left" style="text;html=1;strokeColor=none;fillColor=none;align=center;verticalAlign=middle;whiteSpace=wrap;rounded=0;" vertex="1" parent="WIyWlLk6GJQsqaUBKTNV-1">
          <mxGeometry x="155" y="970" width="130" height="20" as="geometry" />
        </mxCell>
        <mxCell id="0fuXFUwvZUBsQNWXznji-44" value="" style="rounded=0;whiteSpace=wrap;html=1;" vertex="1" parent="WIyWlLk6GJQsqaUBKTNV-1">
          <mxGeometry x="145" y="1060" width="150" height="60" as="geometry" />
        </mxCell>
        <mxCell id="0fuXFUwvZUBsQNWXznji-45" value="eat pacman" style="text;html=1;strokeColor=none;fillColor=none;align=center;verticalAlign=middle;whiteSpace=wrap;rounded=0;" vertex="1" parent="WIyWlLk6GJQsqaUBKTNV-1">
          <mxGeometry x="155" y="1080" width="130" height="20" as="geometry" />
        </mxCell>
        <mxCell id="0fuXFUwvZUBsQNWXznji-46" value="End" style="rounded=1;whiteSpace=wrap;html=1;fontSize=12;glass=0;strokeWidth=1;shadow=0;" vertex="1" parent="WIyWlLk6GJQsqaUBKTNV-1">
          <mxGeometry x="160" y="1169" width="120" height="40" as="geometry" />
        </mxCell>
        <mxCell id="0fuXFUwvZUBsQNWXznji-49" value="" style="rounded=0;html=1;jettySize=auto;orthogonalLoop=1;fontSize=11;endArrow=block;endFill=0;endSize=8;strokeWidth=1;shadow=0;labelBackgroundColor=none;edgeStyle=orthogonalEdgeStyle;exitX=0.5;exitY=1;exitDx=0;exitDy=0;" edge="1" parent="WIyWlLk6GJQsqaUBKTNV-1">
          <mxGeometry y="40" relative="1" as="geometry">
            <mxPoint as="offset" />
            <mxPoint x="219.58000000000013" y="1120" as="sourcePoint" />
            <mxPoint x="219.58000000000013" y="1170" as="targetPoint" />
          </mxGeometry>
        </mxCell>
        <mxCell id="0fuXFUwvZUBsQNWXznji-51" value="" style="rounded=0;html=1;jettySize=auto;orthogonalLoop=1;fontSize=11;endArrow=block;endFill=0;endSize=8;strokeWidth=1;shadow=0;labelBackgroundColor=none;edgeStyle=orthogonalEdgeStyle;" edge="1" parent="WIyWlLk6GJQsqaUBKTNV-1">
          <mxGeometry relative="1" as="geometry">
            <mxPoint x="439.83" y="1360" as="targetPoint" />
            <mxPoint x="439.83" y="1320" as="sourcePoint" />
            <Array as="points">
              <mxPoint x="439.83" y="1320" />
              <mxPoint x="439.83" y="1320" />
            </Array>
          </mxGeometry>
        </mxCell>
        <mxCell id="0fuXFUwvZUBsQNWXznji-52" value="Start" style="rounded=1;whiteSpace=wrap;html=1;fontSize=12;glass=0;strokeWidth=1;shadow=0;" vertex="1" parent="WIyWlLk6GJQsqaUBKTNV-1">
          <mxGeometry x="380" y="1280" width="120" height="40" as="geometry" />
        </mxCell>
        <mxCell id="0fuXFUwvZUBsQNWXznji-53" value="" style="shape=link;html=1;" edge="1" parent="WIyWlLk6GJQsqaUBKTNV-1">
          <mxGeometry width="50" height="50" relative="1" as="geometry">
            <mxPoint y="1240" as="sourcePoint" />
            <mxPoint x="820" y="1240" as="targetPoint" />
          </mxGeometry>
        </mxCell>
        <mxCell id="0fuXFUwvZUBsQNWXznji-54" value="" style="shape=hexagon;perimeter=hexagonPerimeter2;whiteSpace=wrap;html=1;" vertex="1" parent="WIyWlLk6GJQsqaUBKTNV-1">
          <mxGeometry x="330" y="1360" width="220" height="40" as="geometry" />
        </mxCell>
        <mxCell id="0fuXFUwvZUBsQNWXznji-55" value="is pacman near?" style="text;html=1;strokeColor=none;fillColor=none;align=center;verticalAlign=middle;whiteSpace=wrap;rounded=0;" vertex="1" parent="WIyWlLk6GJQsqaUBKTNV-1">
          <mxGeometry x="390" y="1370" width="110" height="20" as="geometry" />
        </mxCell>
        <mxCell id="0fuXFUwvZUBsQNWXznji-57" value="" style="endArrow=classic;html=1;exitX=0;exitY=0.5;exitDx=0;exitDy=0;" edge="1" parent="WIyWlLk6GJQsqaUBKTNV-1" source="0fuXFUwvZUBsQNWXznji-54">
          <mxGeometry width="50" height="50" relative="1" as="geometry">
            <mxPoint x="380" y="1720" as="sourcePoint" />
            <mxPoint x="440" y="1600" as="targetPoint" />
            <Array as="points">
              <mxPoint x="280" y="1380" />
              <mxPoint x="280" y="1540" />
              <mxPoint x="440" y="1540" />
            </Array>
          </mxGeometry>
        </mxCell>
        <mxCell id="0fuXFUwvZUBsQNWXznji-58" value="&lt;font style=&quot;font-size: 8px&quot;&gt;&lt;span style=&quot;color: rgb(0 , 0 , 0) ; font-family: &amp;#34;helvetica&amp;#34; ; font-style: normal ; font-weight: 400 ; letter-spacing: normal ; text-align: center ; text-indent: 0px ; text-transform: none ; word-spacing: 0px ; background-color: rgb(248 , 249 , 250) ; float: none ; display: inline&quot;&gt;go forwad until you hit the wall&lt;/span&gt;&lt;br&gt;&lt;/font&gt;" style="rounded=0;whiteSpace=wrap;html=1;" vertex="1" parent="WIyWlLk6GJQsqaUBKTNV-1">
          <mxGeometry x="380" y="1420" width="120" height="20" as="geometry" />
        </mxCell>
        <mxCell id="0fuXFUwvZUBsQNWXznji-60" value="exit loop" style="text;html=1;strokeColor=none;fillColor=none;align=center;verticalAlign=middle;whiteSpace=wrap;rounded=0;" vertex="1" parent="WIyWlLk6GJQsqaUBKTNV-1">
          <mxGeometry x="275" y="1440" width="65" height="20" as="geometry" />
        </mxCell>
        <mxCell id="0fuXFUwvZUBsQNWXznji-61" value="" style="rounded=0;html=1;jettySize=auto;orthogonalLoop=1;fontSize=11;endArrow=block;endFill=0;endSize=8;strokeWidth=1;shadow=0;labelBackgroundColor=none;edgeStyle=orthogonalEdgeStyle;" edge="1" parent="WIyWlLk6GJQsqaUBKTNV-1">
          <mxGeometry relative="1" as="geometry">
            <mxPoint x="439.79999999999995" y="1420" as="targetPoint" />
            <mxPoint x="440" y="1400" as="sourcePoint" />
            <Array as="points">
              <mxPoint x="440" y="1400" />
            </Array>
          </mxGeometry>
        </mxCell>
        <mxCell id="0fuXFUwvZUBsQNWXznji-62" value="&lt;font style=&quot;font-size: 8px&quot;&gt;&lt;span style=&quot;color: rgb(0 , 0 , 0) ; font-family: &amp;#34;helvetica&amp;#34; ; font-style: normal ; font-weight: 400 ; letter-spacing: normal ; text-align: center ; text-indent: 0px ; text-transform: none ; word-spacing: 0px ; background-color: rgb(248 , 249 , 250) ; float: none ; display: inline&quot;&gt;go left&lt;/span&gt;&lt;br&gt;&lt;/font&gt;" style="rounded=0;whiteSpace=wrap;html=1;" vertex="1" parent="WIyWlLk6GJQsqaUBKTNV-1">
          <mxGeometry x="380" y="1460" width="120" height="20" as="geometry" />
        </mxCell>
        <mxCell id="0fuXFUwvZUBsQNWXznji-63" value="" style="rounded=0;html=1;jettySize=auto;orthogonalLoop=1;fontSize=11;endArrow=block;endFill=0;endSize=8;strokeWidth=1;shadow=0;labelBackgroundColor=none;edgeStyle=orthogonalEdgeStyle;" edge="1" parent="WIyWlLk6GJQsqaUBKTNV-1">
          <mxGeometry relative="1" as="geometry">
            <mxPoint x="439.79999999999995" y="1460" as="targetPoint" />
            <mxPoint x="440" y="1440" as="sourcePoint" />
            <Array as="points">
              <mxPoint x="440" y="1440" />
            </Array>
          </mxGeometry>
        </mxCell>
        <mxCell id="0fuXFUwvZUBsQNWXznji-64" value="&lt;font style=&quot;font-size: 8px&quot;&gt;go right&lt;/font&gt;" style="rounded=0;whiteSpace=wrap;html=1;" vertex="1" parent="WIyWlLk6GJQsqaUBKTNV-1">
          <mxGeometry x="380" y="1500" width="120" height="20" as="geometry" />
        </mxCell>
        <mxCell id="0fuXFUwvZUBsQNWXznji-65" value="" style="rounded=0;html=1;jettySize=auto;orthogonalLoop=1;fontSize=11;endArrow=block;endFill=0;endSize=8;strokeWidth=1;shadow=0;labelBackgroundColor=none;edgeStyle=orthogonalEdgeStyle;" edge="1" parent="WIyWlLk6GJQsqaUBKTNV-1">
          <mxGeometry relative="1" as="geometry">
            <mxPoint x="439.79999999999995" y="1500" as="targetPoint" />
            <mxPoint x="440" y="1480" as="sourcePoint" />
            <Array as="points">
              <mxPoint x="440" y="1480" />
            </Array>
          </mxGeometry>
        </mxCell>
        <mxCell id="0fuXFUwvZUBsQNWXznji-66" value="" style="endArrow=classic;html=1;exitX=0.5;exitY=1;exitDx=0;exitDy=0;entryX=1;entryY=0.5;entryDx=0;entryDy=0;" edge="1" parent="WIyWlLk6GJQsqaUBKTNV-1" source="0fuXFUwvZUBsQNWXznji-64" target="0fuXFUwvZUBsQNWXznji-54">
          <mxGeometry width="50" height="50" relative="1" as="geometry">
            <mxPoint x="460" y="1420" as="sourcePoint" />
            <mxPoint x="510" y="1370" as="targetPoint" />
            <Array as="points">
              <mxPoint x="440" y="1530" />
              <mxPoint x="600" y="1530" />
              <mxPoint x="600" y="1380" />
            </Array>
          </mxGeometry>
        </mxCell>
        <mxCell id="0fuXFUwvZUBsQNWXznji-67" value="enter loop" style="text;html=1;strokeColor=none;fillColor=none;align=center;verticalAlign=middle;whiteSpace=wrap;rounded=0;" vertex="1" parent="WIyWlLk6GJQsqaUBKTNV-1">
          <mxGeometry x="530" y="1440" width="65" height="20" as="geometry" />
        </mxCell>
        <mxCell id="0fuXFUwvZUBsQNWXznji-68" value="" style="rounded=0;whiteSpace=wrap;html=1;" vertex="1" parent="WIyWlLk6GJQsqaUBKTNV-1">
          <mxGeometry x="380" y="1600" width="120" height="50" as="geometry" />
        </mxCell>
        <mxCell id="0fuXFUwvZUBsQNWXznji-69" value="AI is activated&lt;br&gt;(follow pacman)" style="text;html=1;strokeColor=none;fillColor=none;align=center;verticalAlign=middle;whiteSpace=wrap;rounded=0;" vertex="1" parent="WIyWlLk6GJQsqaUBKTNV-1">
          <mxGeometry x="380" y="1605" width="110" height="35" as="geometry" />
        </mxCell>
        <mxCell id="0fuXFUwvZUBsQNWXznji-70" value="" style="endArrow=classic;html=1;exitX=0.5;exitY=1;exitDx=0;exitDy=0;" edge="1" parent="WIyWlLk6GJQsqaUBKTNV-1" source="0fuXFUwvZUBsQNWXznji-68">
          <mxGeometry width="50" height="50" relative="1" as="geometry">
            <mxPoint x="460" y="1590" as="sourcePoint" />
            <mxPoint x="440" y="1680" as="targetPoint" />
          </mxGeometry>
        </mxCell>
        <mxCell id="0fuXFUwvZUBsQNWXznji-71" value="is pacman still near?" style="rounded=0;whiteSpace=wrap;html=1;" vertex="1" parent="WIyWlLk6GJQsqaUBKTNV-1">
          <mxGeometry x="380" y="1680" width="120" height="40" as="geometry" />
        </mxCell>
        <mxCell id="0fuXFUwvZUBsQNWXznji-73" value="" style="endArrow=classic;html=1;exitX=0.5;exitY=1;exitDx=0;exitDy=0;entryX=0;entryY=0.5;entryDx=0;entryDy=0;" edge="1" parent="WIyWlLk6GJQsqaUBKTNV-1" source="0fuXFUwvZUBsQNWXznji-71" target="0fuXFUwvZUBsQNWXznji-69">
          <mxGeometry width="50" height="50" relative="1" as="geometry">
            <mxPoint x="460" y="1590" as="sourcePoint" />
            <mxPoint x="440" y="1750" as="targetPoint" />
            <Array as="points">
              <mxPoint x="440" y="1750" />
              <mxPoint x="320" y="1750" />
              <mxPoint x="320" y="1623" />
            </Array>
          </mxGeometry>
        </mxCell>
        <mxCell id="0fuXFUwvZUBsQNWXznji-75" value="yes" style="text;html=1;strokeColor=none;fillColor=none;align=center;verticalAlign=middle;whiteSpace=wrap;rounded=0;" vertex="1" parent="WIyWlLk6GJQsqaUBKTNV-1">
          <mxGeometry x="320" y="1670" width="40" height="20" as="geometry" />
        </mxCell>
        <mxCell id="0fuXFUwvZUBsQNWXznji-86" value="" style="endArrow=classic;html=1;exitX=1;exitY=0.5;exitDx=0;exitDy=0;entryX=1;entryY=0.5;entryDx=0;entryDy=0;" edge="1" parent="WIyWlLk6GJQsqaUBKTNV-1" source="0fuXFUwvZUBsQNWXznji-71" target="0fuXFUwvZUBsQNWXznji-52">
          <mxGeometry width="50" height="50" relative="1" as="geometry">
            <mxPoint x="460" y="1590" as="sourcePoint" />
            <mxPoint x="680" y="1700" as="targetPoint" />
            <Array as="points">
              <mxPoint x="640" y="1700" />
              <mxPoint x="640" y="1300" />
            </Array>
          </mxGeometry>
        </mxCell>
        <mxCell id="0fuXFUwvZUBsQNWXznji-87" value="no" style="text;html=1;strokeColor=none;fillColor=none;align=center;verticalAlign=middle;whiteSpace=wrap;rounded=0;" vertex="1" parent="WIyWlLk6GJQsqaUBKTNV-1">
          <mxGeometry x="640" y="1440" width="40" height="20" as="geometry" />
        </mxCell>
        <mxCell id="0fuXFUwvZUBsQNWXznji-88" value="yes" style="text;html=1;strokeColor=none;fillColor=none;align=center;verticalAlign=middle;whiteSpace=wrap;rounded=0;" vertex="1" parent="WIyWlLk6GJQsqaUBKTNV-1">
          <mxGeometry x="280" y="1350" width="40" height="20" as="geometry" />
        </mxCell>
        <mxCell id="0fuXFUwvZUBsQNWXznji-90" value="no" style="text;html=1;strokeColor=none;fillColor=none;align=center;verticalAlign=middle;whiteSpace=wrap;rounded=0;" vertex="1" parent="WIyWlLk6GJQsqaUBKTNV-1">
          <mxGeometry x="440" y="1400" width="40" height="20" as="geometry" />
        </mxCell>
      </root>
    </mxGraphModel>
  </diagram>
</mxfile>
